<mxfile host="Electron" modified="2024-02-01T19:21:45.348Z" agent="Mozilla/5.0 (Windows NT 10.0; Win64; x64) AppleWebKit/537.36 (KHTML, like Gecko) draw.io/23.0.2 Chrome/120.0.6099.109 Electron/28.1.0 Safari/537.36" etag="9sQlwahSqcbLGJOJLw3_" version="23.0.2" type="device">
  <diagram name="Page-1" id="s2PqnP1r0E8Zw5Qet5kd">
    <mxGraphModel dx="1147" dy="670" grid="1" gridSize="10" guides="1" tooltips="1" connect="1" arrows="1" fold="1" page="1" pageScale="1" pageWidth="850" pageHeight="1100" math="0" shadow="0">
      <root>
        <mxCell id="0" />
        <mxCell id="1" parent="0" />
        <mxCell id="ypYAMgsdj-_S6UtdiGPY-1" value="" style="rounded=0;whiteSpace=wrap;html=1;" parent="1" vertex="1">
          <mxGeometry x="333" y="215" width="182" height="670" as="geometry" />
        </mxCell>
        <mxCell id="ypYAMgsdj-_S6UtdiGPY-2" value="Capstone" style="text;html=1;strokeColor=none;fillColor=none;align=center;verticalAlign=middle;whiteSpace=wrap;rounded=0;" parent="1" vertex="1">
          <mxGeometry x="368" y="230" width="115" height="30" as="geometry" />
        </mxCell>
        <mxCell id="ypYAMgsdj-_S6UtdiGPY-3" value="Start Game" style="ellipse;whiteSpace=wrap;html=1;" parent="1" vertex="1">
          <mxGeometry x="364" y="265" width="120" height="80" as="geometry" />
        </mxCell>
        <mxCell id="ypYAMgsdj-_S6UtdiGPY-4" value="Play Game" style="ellipse;whiteSpace=wrap;html=1;" parent="1" vertex="1">
          <mxGeometry x="364" y="635" width="120" height="80" as="geometry" />
        </mxCell>
        <mxCell id="ypYAMgsdj-_S6UtdiGPY-5" value="Select Settings (Character, Stage, Options)" style="ellipse;whiteSpace=wrap;html=1;" parent="1" vertex="1">
          <mxGeometry x="364" y="395" width="120" height="80" as="geometry" />
        </mxCell>
        <mxCell id="ypYAMgsdj-_S6UtdiGPY-6" value="Exit Game" style="ellipse;whiteSpace=wrap;html=1;" parent="1" vertex="1">
          <mxGeometry x="364" y="755" width="120" height="80" as="geometry" />
        </mxCell>
        <mxCell id="ypYAMgsdj-_S6UtdiGPY-7" value="Player" style="shape=umlActor;verticalLabelPosition=bottom;verticalAlign=top;html=1;outlineConnect=0;" parent="1" vertex="1">
          <mxGeometry x="155" y="415" width="50" height="90" as="geometry" />
        </mxCell>
        <mxCell id="ypYAMgsdj-_S6UtdiGPY-8" value="Game" style="shape=umlActor;verticalLabelPosition=bottom;verticalAlign=top;html=1;outlineConnect=0;" parent="1" vertex="1">
          <mxGeometry x="640" y="415" width="50" height="90" as="geometry" />
        </mxCell>
        <mxCell id="ypYAMgsdj-_S6UtdiGPY-9" value="" style="endArrow=none;html=1;rounded=0;exitX=1;exitY=0.3333333333333333;exitDx=0;exitDy=0;exitPerimeter=0;entryX=0;entryY=0.5;entryDx=0;entryDy=0;" parent="1" source="ypYAMgsdj-_S6UtdiGPY-7" target="ypYAMgsdj-_S6UtdiGPY-3" edge="1">
          <mxGeometry width="50" height="50" relative="1" as="geometry">
            <mxPoint x="395" y="445" as="sourcePoint" />
            <mxPoint x="445" y="395" as="targetPoint" />
          </mxGeometry>
        </mxCell>
        <mxCell id="ypYAMgsdj-_S6UtdiGPY-10" value="" style="endArrow=none;html=1;rounded=0;exitX=1;exitY=0.5;exitDx=0;exitDy=0;entryX=0;entryY=0.3333333333333333;entryDx=0;entryDy=0;entryPerimeter=0;" parent="1" source="ypYAMgsdj-_S6UtdiGPY-3" target="ypYAMgsdj-_S6UtdiGPY-8" edge="1">
          <mxGeometry width="50" height="50" relative="1" as="geometry">
            <mxPoint x="215" y="440" as="sourcePoint" />
            <mxPoint x="370" y="315" as="targetPoint" />
          </mxGeometry>
        </mxCell>
        <mxCell id="ypYAMgsdj-_S6UtdiGPY-11" value="" style="endArrow=none;html=1;rounded=0;exitX=1;exitY=0.3333333333333333;exitDx=0;exitDy=0;exitPerimeter=0;entryX=0;entryY=0.5;entryDx=0;entryDy=0;" parent="1" source="ypYAMgsdj-_S6UtdiGPY-7" target="ypYAMgsdj-_S6UtdiGPY-5" edge="1">
          <mxGeometry width="50" height="50" relative="1" as="geometry">
            <mxPoint x="395" y="445" as="sourcePoint" />
            <mxPoint x="445" y="395" as="targetPoint" />
          </mxGeometry>
        </mxCell>
        <mxCell id="ypYAMgsdj-_S6UtdiGPY-12" value="" style="endArrow=none;html=1;rounded=0;exitX=0;exitY=0.3333333333333333;exitDx=0;exitDy=0;exitPerimeter=0;entryX=1;entryY=0.5;entryDx=0;entryDy=0;" parent="1" source="ypYAMgsdj-_S6UtdiGPY-8" target="ypYAMgsdj-_S6UtdiGPY-5" edge="1">
          <mxGeometry width="50" height="50" relative="1" as="geometry">
            <mxPoint x="215" y="440" as="sourcePoint" />
            <mxPoint x="370" y="415" as="targetPoint" />
          </mxGeometry>
        </mxCell>
        <mxCell id="ypYAMgsdj-_S6UtdiGPY-16" value="Load Game" style="ellipse;whiteSpace=wrap;html=1;" parent="1" vertex="1">
          <mxGeometry x="364" y="525" width="120" height="80" as="geometry" />
        </mxCell>
        <mxCell id="ypYAMgsdj-_S6UtdiGPY-17" value="" style="endArrow=none;html=1;rounded=0;exitX=1;exitY=0.3333333333333333;exitDx=0;exitDy=0;exitPerimeter=0;entryX=0;entryY=0.5;entryDx=0;entryDy=0;" parent="1" source="ypYAMgsdj-_S6UtdiGPY-7" target="ypYAMgsdj-_S6UtdiGPY-6" edge="1">
          <mxGeometry width="50" height="50" relative="1" as="geometry">
            <mxPoint x="395" y="605" as="sourcePoint" />
            <mxPoint x="445" y="555" as="targetPoint" />
          </mxGeometry>
        </mxCell>
        <mxCell id="ypYAMgsdj-_S6UtdiGPY-18" value="" style="endArrow=none;html=1;rounded=0;exitX=0;exitY=0.3333333333333333;exitDx=0;exitDy=0;exitPerimeter=0;entryX=1;entryY=0.5;entryDx=0;entryDy=0;" parent="1" source="ypYAMgsdj-_S6UtdiGPY-8" target="ypYAMgsdj-_S6UtdiGPY-6" edge="1">
          <mxGeometry width="50" height="50" relative="1" as="geometry">
            <mxPoint x="215" y="440" as="sourcePoint" />
            <mxPoint x="370" y="815" as="targetPoint" />
          </mxGeometry>
        </mxCell>
        <mxCell id="ypYAMgsdj-_S6UtdiGPY-19" value="" style="endArrow=classic;html=1;rounded=0;exitX=0.5;exitY=1;exitDx=0;exitDy=0;entryX=0.5;entryY=0;entryDx=0;entryDy=0;" parent="1" source="ypYAMgsdj-_S6UtdiGPY-5" target="ypYAMgsdj-_S6UtdiGPY-16" edge="1">
          <mxGeometry width="50" height="50" relative="1" as="geometry">
            <mxPoint x="395" y="605" as="sourcePoint" />
            <mxPoint x="445" y="555" as="targetPoint" />
          </mxGeometry>
        </mxCell>
        <mxCell id="ypYAMgsdj-_S6UtdiGPY-20" value="Includes" style="text;html=1;strokeColor=none;fillColor=none;align=center;verticalAlign=middle;whiteSpace=wrap;rounded=0;" parent="1" vertex="1">
          <mxGeometry x="365" y="490" width="60" height="30" as="geometry" />
        </mxCell>
        <mxCell id="ypYAMgsdj-_S6UtdiGPY-21" value="" style="endArrow=none;html=1;rounded=0;exitX=0;exitY=0.3333333333333333;exitDx=0;exitDy=0;exitPerimeter=0;entryX=1;entryY=0.5;entryDx=0;entryDy=0;" parent="1" source="ypYAMgsdj-_S6UtdiGPY-8" target="ypYAMgsdj-_S6UtdiGPY-16" edge="1">
          <mxGeometry width="50" height="50" relative="1" as="geometry">
            <mxPoint x="395" y="605" as="sourcePoint" />
            <mxPoint x="445" y="555" as="targetPoint" />
          </mxGeometry>
        </mxCell>
        <mxCell id="ypYAMgsdj-_S6UtdiGPY-22" value="" style="endArrow=none;html=1;rounded=0;exitX=1;exitY=0.3333333333333333;exitDx=0;exitDy=0;exitPerimeter=0;entryX=0;entryY=0.5;entryDx=0;entryDy=0;" parent="1" source="ypYAMgsdj-_S6UtdiGPY-7" target="ypYAMgsdj-_S6UtdiGPY-4" edge="1">
          <mxGeometry width="50" height="50" relative="1" as="geometry">
            <mxPoint x="395" y="605" as="sourcePoint" />
            <mxPoint x="445" y="555" as="targetPoint" />
          </mxGeometry>
        </mxCell>
        <mxCell id="ypYAMgsdj-_S6UtdiGPY-23" value="" style="endArrow=none;html=1;rounded=0;exitX=0;exitY=0.3333333333333333;exitDx=0;exitDy=0;exitPerimeter=0;entryX=1;entryY=0.5;entryDx=0;entryDy=0;" parent="1" source="ypYAMgsdj-_S6UtdiGPY-8" target="ypYAMgsdj-_S6UtdiGPY-4" edge="1">
          <mxGeometry width="50" height="50" relative="1" as="geometry">
            <mxPoint x="215" y="440" as="sourcePoint" />
            <mxPoint x="374" y="685" as="targetPoint" />
          </mxGeometry>
        </mxCell>
      </root>
    </mxGraphModel>
  </diagram>
</mxfile>
